<svg width="241" height="27" viewBox="0 0 241 27" fill="none" xmlns="http://www.w3.org/2000/svg">
<path d="M6.86819 21.336C6.04686 21.336 5.27886 21.2613 4.56419 21.112C3.86019 20.9733 3.26819 20.7867 2.78819 20.552C2.30819 20.3173 1.91352 20.0933 1.60419 19.88C1.30552 19.6667 1.05486 19.4533 0.852189 19.24L1.25219 15.352C1.68952 15.9387 2.27619 16.4507 3.01219 16.888C3.74819 17.3147 4.54286 17.528 5.39619 17.528C6.24952 17.528 6.86286 17.4373 7.23619 17.256C7.62019 17.0747 7.81219 16.744 7.81219 16.264C7.81219 15.752 7.59352 15.3147 7.15619 14.952C6.72952 14.5893 5.98819 14.152 4.93219 13.64C4.54819 13.448 4.22286 13.2773 3.95619 13.128C3.68952 12.968 3.33219 12.712 2.88419 12.36C2.44686 11.9973 2.08952 11.624 1.81219 11.24C1.53486 10.8453 1.28952 10.344 1.07619 9.736C0.862855 9.11733 0.756189 8.456 0.756189 7.752C0.756189 3.944 2.90552 2.04 7.20419 2.04C7.88686 2.04 8.52686 2.11467 9.12419 2.264C9.73219 2.40267 10.2069 2.55733 10.5482 2.728C10.8895 2.89867 11.1989 3.10133 11.4762 3.336C11.7642 3.56 11.9455 3.72 12.0202 3.816C12.0949 3.90133 12.1482 3.97067 12.1802 4.024L11.3802 7.112C10.9642 6.62133 10.4415 6.25867 9.81219 6.024C9.19352 5.77867 8.60152 5.656 8.03619 5.656C6.67086 5.656 5.98819 6.08267 5.98819 6.936C5.98819 7.16 6.03086 7.36267 6.11619 7.544C6.20152 7.72533 6.34019 7.89067 6.53219 8.04C6.72419 8.18933 6.90019 8.31733 7.06019 8.424C7.23086 8.53067 7.46019 8.664 7.74819 8.824C8.04686 8.97333 8.27086 9.096 8.42019 9.192C9.97752 9.85333 11.1189 10.6373 11.8442 11.544C12.5802 12.4507 12.9482 13.5547 12.9482 14.856C12.9482 16.968 12.4255 18.5787 11.3802 19.688C10.3455 20.7867 8.84152 21.336 6.86819 21.336ZM16.9796 21V10.648L16.0196 10.056V8.344L19.4596 7.4H22.1316V21H16.9796ZM19.2996 5.928L16.6756 3.288V2.728L19.2996 0.104H19.9076L22.6436 2.728V3.288L19.9076 5.928H19.2996ZM31.6669 21H26.4989V10.648L25.5389 10.056V8.344L28.9789 7.4H31.6989V9.464L31.8909 9.224C32.0189 9.05333 32.2056 8.85067 32.4509 8.616C32.7069 8.38133 32.9896 8.152 33.2989 7.928C33.6083 7.69333 33.9763 7.496 34.4029 7.336C34.8403 7.16533 35.2669 7.08 35.6829 7.08C37.1443 7.08 38.1736 7.48 38.7709 8.28C39.3789 9.08 39.6829 10.4187 39.6829 12.296C39.6829 12.36 39.6829 12.456 39.6829 12.584C39.6723 12.712 39.6669 12.8133 39.6669 12.888V21H34.3869V12.424C34.4189 11.4213 33.9923 10.92 33.1069 10.92C33.0429 10.92 32.9789 10.9253 32.9149 10.936C32.8616 10.9467 32.8083 10.9573 32.7549 10.968C32.7123 10.9787 32.6589 11 32.5949 11.032C32.5416 11.0533 32.4936 11.0747 32.4509 11.096C32.4083 11.1067 32.3603 11.1333 32.3069 11.176C32.2536 11.208 32.2109 11.2347 32.1789 11.256C32.1469 11.2773 32.0989 11.3147 32.0349 11.368C31.9816 11.4107 31.9389 11.4427 31.9069 11.464C31.8856 11.4853 31.8429 11.5227 31.7789 11.576C31.7256 11.6187 31.6883 11.6507 31.6669 11.672V21ZM50.0064 26.648C49.1744 26.648 48.2358 26.456 47.1904 26.072C46.1451 25.6987 45.4678 25.3413 45.1584 25L46.1664 22.808C46.4331 23.0107 46.8651 23.1973 47.4624 23.368C48.0598 23.5387 48.5718 23.624 48.9984 23.624C49.4251 23.624 49.7931 23.5653 50.1024 23.448C50.4224 23.3413 50.6678 23.2027 50.8384 23.032C51.0091 22.872 51.1478 22.6693 51.2544 22.424C51.3611 22.1893 51.4251 21.976 51.4464 21.784C51.4784 21.592 51.4998 21.3787 51.5104 21.144V19.784C50.6038 20.7227 49.4998 21.192 48.1984 21.192C46.4384 21.192 45.1478 20.5893 44.3264 19.384C43.5051 18.1787 43.0944 16.504 43.0944 14.36C43.0944 13.3573 43.2064 12.4347 43.4304 11.592C43.6544 10.7387 43.9798 9.992 44.4064 9.352C44.8438 8.70133 45.4091 8.19467 46.1024 7.832C46.7958 7.45867 47.5798 7.272 48.4544 7.272C49.7771 7.272 50.9238 7.56533 51.8944 8.152L52.1664 7.4H54.6144L57.6224 7.544V9.048L56.6624 9.72V20.408C56.6624 24.568 54.4438 26.648 50.0064 26.648ZM50.5184 18.28C50.8384 18.28 51.1691 18.1893 51.5104 18.008V9.576C51.2544 9.52267 51.0198 9.496 50.8064 9.496C49.3878 9.50667 48.6731 10.6 48.6624 12.776V15.256C48.6624 15.9387 48.7531 16.5253 48.9344 17.016C49.2544 17.8587 49.7824 18.28 50.5184 18.28ZM66.0133 21H60.8293V2.904L59.8693 2.328V0.840001L65.0053 0.04H66.0453V9.464L66.2373 9.224C66.3653 9.05333 66.552 8.85067 66.7973 8.616C67.0533 8.38133 67.336 8.152 67.6453 7.928C67.9546 7.69333 68.3226 7.496 68.7493 7.336C69.1866 7.16533 69.6133 7.08 70.0293 7.08C71.4906 7.08 72.52 7.48 73.1173 8.28C73.7253 9.08 74.0293 10.4187 74.0293 12.296C74.0293 12.36 74.0293 12.456 74.0293 12.584C74.0186 12.712 74.0133 12.8133 74.0133 12.888V21H68.7333V12.424C68.7653 11.4213 68.3386 10.92 67.4533 10.92C67.368 10.92 67.2826 10.9253 67.1973 10.936C67.1226 10.9467 67.0426 10.9733 66.9573 11.016C66.872 11.0587 66.8026 11.0907 66.7493 11.112C66.7066 11.1333 66.6373 11.176 66.5413 11.24C66.456 11.304 66.3973 11.3467 66.3653 11.368C66.344 11.3893 66.28 11.4427 66.1733 11.528C66.0773 11.6133 66.024 11.6613 66.0133 11.672V21ZM93.1003 17.864C93.8576 17.864 94.4123 17.6507 94.7643 17.224C95.1163 16.7973 95.2923 16.2907 95.2923 15.704V14.584C95.2923 13.8907 95.0683 13.4 94.6203 13.112C94.1723 12.8133 93.6656 12.664 93.1003 12.664H91.8523V17.864H93.1003ZM95.0683 7.048C95.0683 6.408 94.8923 5.96533 94.5403 5.72C94.1883 5.464 93.6816 5.336 93.0203 5.336H91.8523V9.96H93.1483C93.767 9.96 94.2416 9.72 94.5723 9.24C94.903 8.74933 95.0683 8.152 95.0683 7.448V7.048ZM94.1883 21.144C93.3563 21.144 92.279 21.1227 90.9563 21.08C89.6336 21.0373 88.6843 21.0107 88.1083 21H86.5723V2.248H89.3403C90.0123 2.248 90.7803 2.22667 91.6443 2.184C92.5083 2.13067 93.1323 2.104 93.5163 2.104C94.7643 2.104 95.815 2.20533 96.6683 2.408C97.5323 2.61067 98.2096 2.91467 98.7003 3.32C99.191 3.72533 99.5376 4.19467 99.7403 4.728C99.9536 5.26133 100.06 5.896 100.06 6.632C100.06 7.76267 99.799 8.73333 99.2763 9.544C98.7536 10.3547 97.9963 10.8613 97.0043 11.064C99.5216 11.288 100.78 12.7653 100.78 15.496C100.78 16.3173 100.658 17.064 100.412 17.736C100.167 18.3973 99.7883 18.9893 99.2763 19.512C98.775 20.024 98.0923 20.424 97.2283 20.712C96.3643 21 95.351 21.144 94.1883 21.144ZM111.043 19.416C111.513 19.416 111.87 19.224 112.115 18.84C112.371 18.4453 112.499 17.9067 112.499 17.224V12.168C112.499 10.088 112.009 9.048 111.027 9.048C110.569 9.048 110.211 9.23467 109.955 9.608C109.699 9.98133 109.571 10.5093 109.571 11.192V16.392C109.571 18.408 110.062 19.416 111.043 19.416ZM110.915 21.336C108.473 21.336 106.686 20.7813 105.555 19.672C104.425 18.5627 103.859 16.792 103.859 14.36C103.859 11.9493 104.43 10.136 105.571 8.92C106.713 7.69333 108.569 7.08 111.139 7.08C113.646 7.08 115.454 7.66667 116.563 8.84C117.683 10.0027 118.243 11.768 118.243 14.136C118.243 16.5893 117.651 18.4027 116.467 19.576C115.294 20.7493 113.443 21.336 110.915 21.336ZM128.578 19.416C129.048 19.416 129.405 19.224 129.65 18.84C129.906 18.4453 130.034 17.9067 130.034 17.224V12.168C130.034 10.088 129.544 9.048 128.562 9.048C128.104 9.048 127.746 9.23467 127.49 9.608C127.234 9.98133 127.106 10.5093 127.106 11.192V16.392C127.106 18.408 127.597 19.416 128.578 19.416ZM128.45 21.336C126.008 21.336 124.221 20.7813 123.09 19.672C121.96 18.5627 121.394 16.792 121.394 14.36C121.394 11.9493 121.965 10.136 123.106 8.92C124.248 7.69333 126.104 7.08 128.674 7.08C131.181 7.08 132.989 7.66667 134.098 8.84C135.218 10.0027 135.778 11.768 135.778 14.136C135.778 16.5893 135.186 18.4027 134.002 19.576C132.829 20.7493 130.978 21.336 128.45 21.336ZM147.473 21L144.993 14.456L147.617 7.4H153.617L149.425 13.688L153.713 21H147.473ZM139.457 21V2.904L138.497 2.328V0.840001L143.633 0.04H144.673V21H139.457ZM176.344 20.424C175.427 21.1707 173.608 21.544 170.888 21.544C168.755 21.544 167.075 20.9627 165.848 19.8C164.622 18.6267 164.008 17.1653 164.008 15.416C164.008 14.3387 164.387 13.4 165.144 12.6C165.902 11.8 166.776 11.1973 167.768 10.792C167.704 10.6533 167.571 10.424 167.368 10.104C167.176 9.784 166.995 9.48533 166.824 9.208C166.654 8.93067 166.499 8.57333 166.36 8.136C166.222 7.69867 166.152 7.26133 166.152 6.824C166.152 5.192 166.654 3.96 167.656 3.128C168.67 2.296 170.36 1.88 172.728 1.88C173.774 1.88 174.691 2.01867 175.48 2.296C176.27 2.57333 176.878 2.94667 177.304 3.416C177.731 3.87467 178.046 4.36533 178.248 4.888C178.451 5.4 178.552 5.944 178.552 6.52C178.552 7.71467 178.227 8.78133 177.576 9.72C176.936 10.648 175.939 11.5333 174.584 12.376C174.744 12.664 175.032 13.0693 175.448 13.592C175.875 14.104 176.264 14.504 176.616 14.792C176.712 14.5467 176.787 14.3013 176.84 14.056C176.904 13.8 176.952 13.512 176.984 13.192C177.027 12.872 177.011 12.6 176.936 12.376L181.208 12.504C181.208 13.336 181.118 14.0827 180.936 14.744C180.755 15.3947 180.574 15.8693 180.392 16.168C180.211 16.456 179.955 16.8187 179.624 17.256C180.382 17.8853 181.134 18.28 181.88 18.44L180.648 21.24C180.36 21.272 180.131 21.288 179.96 21.288C178.392 21.288 177.187 21 176.344 20.424ZM168.76 15.512C168.76 16.4827 169.064 17.2773 169.672 17.896C170.28 18.5147 170.99 18.824 171.8 18.824C171.928 18.824 172.046 18.8187 172.152 18.808C172.259 18.7867 172.371 18.7547 172.488 18.712C172.606 18.6587 172.707 18.616 172.792 18.584C172.878 18.5413 173.006 18.4773 173.176 18.392C173.347 18.3067 173.486 18.2373 173.592 18.184C171.864 16.9787 170.478 15.48 169.432 13.688C169.176 13.8373 169 14.04 168.904 14.296C168.808 14.552 168.76 14.9573 168.76 15.512ZM172.648 4.12C171.87 4.12 171.48 4.99467 171.48 6.744C171.48 7.832 171.875 8.82933 172.664 9.736C173.08 9.39467 173.39 9.032 173.592 8.648C173.795 8.264 173.912 7.93333 173.944 7.656C173.987 7.368 174.008 6.968 174.008 6.456C174.008 4.89867 173.555 4.12 172.648 4.12ZM214.177 19.672L214.033 19.848C213.926 19.9547 213.745 20.0933 213.489 20.264C213.243 20.424 212.945 20.5893 212.593 20.76C212.251 20.92 211.793 21.0533 211.217 21.16C210.641 21.2773 210.022 21.336 209.361 21.336C207.963 21.336 206.769 21.1067 205.777 20.648C204.785 20.1787 204.006 19.5013 203.441 18.616C202.886 17.72 202.486 16.712 202.241 15.592C201.995 14.4613 201.873 13.1547 201.873 11.672C201.873 10.0933 201.995 8.73333 202.241 7.592C202.486 6.44 202.891 5.432 203.457 4.568C204.033 3.69333 204.822 3.03733 205.825 2.6C206.827 2.16267 208.049 1.944 209.489 1.944C210.15 1.944 210.769 2.00267 211.345 2.12C211.931 2.23733 212.39 2.37067 212.721 2.52C213.062 2.66933 213.366 2.84 213.633 3.032C213.91 3.224 214.081 3.35733 214.145 3.432C214.219 3.50667 214.273 3.56533 214.305 3.608L214.065 7.288H211.633L210.801 5.384C210.609 5.33067 210.449 5.304 210.321 5.304C209.606 5.304 209.057 5.46933 208.673 5.8C208.289 6.12 207.995 6.75467 207.793 7.704C207.59 8.64267 207.489 9.99733 207.489 11.768C207.489 12.824 207.553 13.7467 207.681 14.536C207.819 15.3253 207.985 15.9333 208.177 16.36C208.369 16.776 208.598 17.112 208.865 17.368C209.131 17.624 209.371 17.7893 209.585 17.864C209.798 17.928 210.027 17.96 210.273 17.96C210.817 17.96 211.387 17.896 211.985 17.768C212.582 17.6293 213.073 17.4213 213.457 17.144L214.177 19.672ZM224.37 19.416C224.84 19.416 225.197 19.224 225.442 18.84C225.698 18.4453 225.826 17.9067 225.826 17.224V12.168C225.826 10.088 225.336 9.048 224.354 9.048C223.896 9.048 223.538 9.23467 223.282 9.608C223.026 9.98133 222.898 10.5093 222.898 11.192V16.392C222.898 18.408 223.389 19.416 224.37 19.416ZM224.242 21.336C221.8 21.336 220.013 20.7813 218.882 19.672C217.752 18.5627 217.186 16.792 217.186 14.36C217.186 11.9493 217.757 10.136 218.898 8.92C220.04 7.69333 221.896 7.08 224.466 7.08C226.973 7.08 228.781 7.66667 229.89 8.84C231.01 10.0027 231.57 11.768 231.57 14.136C231.57 16.5893 230.978 18.4027 229.794 19.576C228.621 20.7493 226.77 21.336 224.242 21.336ZM237.105 21.304L234.481 18.664V18.104L237.105 15.48H237.713L240.449 18.104V18.664L237.713 21.304H237.105Z" fill="black"/>
</svg>
